<svg width="15" height="15" viewBox="0 0 15 15" fill="none" xmlns="http://www.w3.org/2000/svg">
<path d="M10.8604 0H4.13934C1.85691 0 0 1.857 0 4.13943V10.8605C0 13.143 1.85691 14.9999 4.13934 14.9999H10.8604C13.143 14.9999 14.9999 13.1429 14.9999 10.8605V4.13943C15 1.857 13.143 0 10.8604 0ZM13.6691 10.8605C13.6691 12.4092 12.4092 13.669 10.8605 13.669H4.13934C2.59075 13.6691 1.33086 12.4092 1.33086 10.8605V4.13943C1.33086 2.59084 2.59075 1.33086 4.13934 1.33086H10.8604C12.4091 1.33086 13.669 2.59084 13.669 4.13943V10.8605H13.6691Z" fill="#004811"/>
<path d="M7.49998 3.63501C5.36874 3.63501 3.63489 5.36886 3.63489 7.50011C3.63489 9.63126 5.36874 11.365 7.49998 11.365C9.63123 11.365 11.3651 9.63126 11.3651 7.50011C11.3651 5.36886 9.63123 3.63501 7.49998 3.63501ZM7.49998 10.0341C6.10266 10.0341 4.96575 8.89734 4.96575 7.50002C4.96575 6.10261 6.10258 4.96579 7.49998 4.96579C8.89739 4.96579 10.0342 6.10261 10.0342 7.50002C10.0342 8.89734 8.8973 10.0341 7.49998 10.0341Z" fill="#004811"/>
<path d="M11.5271 2.50653C11.2707 2.50653 11.0188 2.61034 10.8377 2.79222C10.6558 2.97322 10.5511 3.2252 10.5511 3.4825C10.5511 3.739 10.6558 3.99089 10.8377 4.17277C11.0187 4.35377 11.2707 4.45847 11.5271 4.45847C11.7844 4.45847 12.0355 4.35377 12.2174 4.17277C12.3993 3.99089 12.5031 3.73891 12.5031 3.4825C12.5031 3.2252 12.3993 2.97322 12.2174 2.79222C12.0364 2.61034 11.7844 2.50653 11.5271 2.50653Z" fill="#004811"/>
</svg>
