<svg width="18" height="18" viewBox="0 0 18 18" fill="none" xmlns="http://www.w3.org/2000/svg">
<path d="M17.081 4.7822C16.8865 4.05927 16.3165 3.48939 15.5937 3.29472C14.2732 2.93341 8.991 2.93341 8.991 2.93341C8.991 2.93341 3.70902 2.93341 2.3885 3.28102C1.67957 3.47548 1.09568 4.05937 0.901222 4.7822C0.553711 6.10261 0.553711 8.84098 0.553711 8.84098C0.553711 8.84098 0.553711 11.5932 0.901222 12.8998C1.09589 13.6226 1.66566 14.1925 2.3886 14.3871C3.72292 14.7486 8.99121 14.7486 8.99121 14.7486C8.99121 14.7486 14.2732 14.7486 15.5937 14.4009C16.3166 14.2064 16.8865 13.6365 17.0812 12.9137C17.4286 11.5932 17.4286 8.85489 17.4286 8.85489C17.4286 8.85489 17.4425 6.10261 17.081 4.7822ZM7.30927 11.3708V6.31118L11.7017 8.84098L7.30927 11.3708Z" fill="#004811"/>
</svg>
